# xmcd CD database file
#
# Track frame offsets:
#	150
#	12396
#	25759
#	39095
#	52279
#	65657
#	77830
#	92025
#	104682
#	117304
#	130627
#	142000
#	153455
#	164901
#	176032
#	187708
#	200389
#	211945
#	223806
#	236387
#
# Disc length: 3349 seconds
#
# Revision: 0
# Processed by: cddbd v1.5.2PL0 Copyright (c) Steve Scherf et al.
# Submitted via: CDex 1.70beta2
#
DISCID=210d1314
DTITLE=Isidore Soucy - Le violon Inoubliable
DYEAR=1940
DGENRE=Country
TTITLE0=Reel Des Gouverneurs
TTITLE1=Reel De La Soupe Au Pois
TTITLE2=Reel Des Bretelles
TTITLE3=Reel De Fernando
TTITLE4=Reel Des Bouffons
TTITLE5=Reel De Ti-Zoune
TTITLE6=Reel De La Bouteillle
TTITLE7=Gigue De Ti-Ness
TTITLE8=Reel Du Chapeau À Plume
TTITLE9=Reel De St-Sauveur
TTITLE10=La Raspa Du Canada
TTITLE11=Reel Des Boulangers
TTITLE12=Reel Des Braves
TTITLE13=Quadrille Yvette
TTITLE14=Gigue Des Pochards
TTITLE15=Reel À Ti-Père
TTITLE16=Reel De Témiscamingue
TTITLE17=Quadrille À Marie-Louise
TTITLE18=Gigue des Touristes
TTITLE19=Reel De Rimouski
EXTD=YEAR: 1940
EXTT0=
EXTT1=
EXTT2=
EXTT3=
EXTT4=
EXTT5=
EXTT6=
EXTT7=
EXTT8=
EXTT9=
EXTT10=
EXTT11=
EXTT12=
EXTT13=
EXTT14=
EXTT15=
EXTT16=
EXTT17=
EXTT18=
EXTT19=
PLAYORDER=
